<svg xmlns="http://www.w3.org/2000/svg" viewBox="0 0 1200 920" font-family="Segoe UI, Arial, sans-serif">
  <defs>
    <marker id="m7a" markerWidth="10" markerHeight="7" refX="9" refY="3.5" orient="auto"><polygon points="0 0,10 3.5,0 7" fill="#475569"/></marker>
    <filter id="m7s" x="-4%" y="-4%" width="110%" height="116%">
      <feDropShadow dx="1" dy="3" stdDeviation="4" flood-color="#64748b" flood-opacity="0.18"/>
    </filter>
    <linearGradient id="m7bg" x1="0%" y1="0%" x2="0%" y2="100%">
      <stop offset="0%" stop-color="#faf5ff"/><stop offset="100%" stop-color="#f3e8ff"/>
    </linearGradient>
  </defs>

  <rect width="1200" height="920" fill="url(#m7bg)" rx="16"/>

  <!-- title -->
  <text x="600" y="40" text-anchor="middle" font-size="24" font-weight="800" fill="#0f172a" letter-spacing="-0.5">Tag-Based Data Masking - Complete Flow</text>
  <text x="600" y="64" text-anchor="middle" font-size="14" fill="#64748b">How Atlas tags drive Ranger masking to transform sensitive data at query time</text>

  <!-- ============ SETUP PHASE ============ -->
  <rect x="40" y="85" width="1120" height="170" rx="14" fill="#fff" stroke="#e9d5ff" stroke-width="1.5" filter="url(#m7s)"/>
  <rect x="40" y="85" width="1120" height="32" rx="14" fill="#7c3aed"/>
  <rect x="40" y="105" width="1120" height="12" fill="#7c3aed"/>
  <text x="600" y="106" text-anchor="middle" font-size="14" font-weight="800" fill="#fff">SETUP PHASE  (One-time Configuration)</text>

  <!-- Setup Step 1 -->
  <circle cx="130" cy="145" r="20" fill="#7c3aed" stroke="#6d28d9" stroke-width="2"/>
  <text x="130" y="152" text-anchor="middle" font-size="14" font-weight="800" fill="#fff">1</text>
  <rect x="80" y="170" width="210" height="72" rx="8" fill="#faf5ff" stroke="#c4b5fd" stroke-width="1.5"/>
  <text x="185" y="190" text-anchor="middle" font-size="12" font-weight="700" fill="#6d28d9">Tag Columns in Atlas</text>
  <text x="185" y="208" text-anchor="middle" font-size="10" fill="#334155">name -> PII_NAME</text>
  <text x="185" y="222" text-anchor="middle" font-size="10" fill="#334155">ssn -> PII_SSN  |  email -> PII_EMAIL</text>
  <text x="185" y="236" text-anchor="middle" font-size="10" fill="#334155">salary -> FINANCIAL</text>

  <!-- Arrow -->
  <line x1="290" y1="206" x2="360" y2="206" stroke="#475569" stroke-width="2" marker-end="url(#m7a)"/>

  <!-- Setup Step 2 -->
  <circle cx="430" cy="145" r="20" fill="#ea580c" stroke="#c2410c" stroke-width="2"/>
  <text x="430" y="152" text-anchor="middle" font-size="14" font-weight="800" fill="#fff">2</text>
  <rect x="375" y="170" width="230" height="72" rx="8" fill="#fff7ed" stroke="#fdba74" stroke-width="1.5"/>
  <text x="490" y="190" text-anchor="middle" font-size="12" font-weight="700" fill="#c2410c">TagSync Sends to Ranger</text>
  <text x="490" y="208" text-anchor="middle" font-size="10" fill="#334155">Atlas -> ATLAS_ENTITIES (Kafka)</text>
  <text x="490" y="222" text-anchor="middle" font-size="10" fill="#334155">-> ranger-tagsync daemon</text>
  <text x="490" y="236" text-anchor="middle" font-size="10" fill="#334155">-> Ranger tag store  (~30-60s)</text>

  <!-- Arrow -->
  <line x1="605" y1="206" x2="670" y2="206" stroke="#475569" stroke-width="2" marker-end="url(#m7a)"/>

  <!-- Setup Step 3 -->
  <circle cx="740" cy="145" r="20" fill="#dc2626" stroke="#991b1b" stroke-width="2"/>
  <text x="740" y="152" text-anchor="middle" font-size="14" font-weight="800" fill="#fff">3</text>
  <rect x="685" y="170" width="450" height="72" rx="8" fill="#fef2f2" stroke="#fca5a5" stroke-width="1.5"/>
  <text x="910" y="190" text-anchor="middle" font-size="12" font-weight="700" fill="#991b1b">Create Masking Policies in Ranger</text>
  <!-- Policy chips -->
  <rect x="700" y="200" width="125" height="18" rx="9" fill="#dc2626"/>
  <text x="763" y="213" text-anchor="middle" font-size="9" font-weight="600" fill="#fff">PII_NAME -> Redact</text>
  <rect x="835" y="200" width="155" height="18" rx="9" fill="#dc2626"/>
  <text x="913" y="213" text-anchor="middle" font-size="9" font-weight="600" fill="#fff">PII_SSN -> Partial Mask</text>
  <rect x="1000" y="200" width="120" height="18" rx="9" fill="#dc2626"/>
  <text x="1060" y="213" text-anchor="middle" font-size="9" font-weight="600" fill="#fff">PII_EMAIL -> Hash</text>
  <rect x="700" y="224" width="145" height="18" rx="9" fill="#ea580c"/>
  <text x="773" y="237" text-anchor="middle" font-size="9" font-weight="600" fill="#fff">FINANCIAL -> Nullify</text>
  <rect x="855" y="224" width="200" height="18" rx="9" fill="#16a34a"/>
  <text x="955" y="237" text-anchor="middle" font-size="9" font-weight="600" fill="#fff">data_admins -> Unmasked (override)</text>

  <!-- ============ RUNTIME PHASE ============ -->
  <rect x="40" y="275" width="1120" height="380" rx="14" fill="#fff" stroke="#e2e8f0" stroke-width="1.5" filter="url(#m7s)"/>
  <rect x="40" y="275" width="1120" height="32" rx="14" fill="#2563eb"/>
  <rect x="40" y="295" width="1120" height="12" fill="#2563eb"/>
  <text x="600" y="296" text-anchor="middle" font-size="14" font-weight="800" fill="#fff">RUNTIME PHASE  (Every Query - Automatic)</text>

  <!-- Source table -->
  <text x="230" y="330" text-anchor="middle" font-size="13" font-weight="700" fill="#334155">Actual Table Data (employees)</text>

  <!-- Table header -->
  <rect x="60" y="340" width="75" height="30" fill="#1e40af" rx="4 4 0 0"/>
  <text x="98" y="360" text-anchor="middle" font-size="10" font-weight="700" fill="#fff">name</text>
  <rect x="135" y="340" width="75" height="30" fill="#1e40af"/>
  <text x="173" y="360" text-anchor="middle" font-size="10" font-weight="700" fill="#fff">email</text>
  <rect x="210" y="340" width="80" height="30" fill="#1e40af"/>
  <text x="250" y="360" text-anchor="middle" font-size="10" font-weight="700" fill="#fff">ssn</text>
  <rect x="290" y="340" width="70" height="30" fill="#1e40af"/>
  <text x="325" y="360" text-anchor="middle" font-size="10" font-weight="700" fill="#fff">salary</text>
  <rect x="360" y="340" width="80" height="30" fill="#1e40af" rx="0 4 0 0"/>
  <text x="400" y="360" text-anchor="middle" font-size="10" font-weight="700" fill="#fff">dept</text>

  <!-- Tag badges -->
  <rect x="64" y="370" width="68" height="14" rx="7" fill="#dc2626"/>
  <text x="98" y="381" text-anchor="middle" font-size="7" font-weight="700" fill="#fff">PII_NAME</text>
  <rect x="139" y="370" width="68" height="14" rx="7" fill="#dc2626"/>
  <text x="173" y="381" text-anchor="middle" font-size="7" font-weight="700" fill="#fff">PII_EMAIL</text>
  <rect x="218" y="370" width="58" height="14" rx="7" fill="#dc2626"/>
  <text x="247" y="381" text-anchor="middle" font-size="7" font-weight="700" fill="#fff">PII_SSN</text>
  <rect x="294" y="370" width="62" height="14" rx="7" fill="#ea580c"/>
  <text x="325" y="381" text-anchor="middle" font-size="7" font-weight="700" fill="#fff">FINANCIAL</text>
  <text x="400" y="381" text-anchor="middle" font-size="8" fill="#94a3b8" font-style="italic">no tag</text>

  <!-- Data Row 1 -->
  <rect x="60" y="388" width="75" height="28" fill="#fff" stroke="#e2e8f0" stroke-width="1"/>
  <text x="98" y="406" text-anchor="middle" font-size="10" fill="#334155">Alice Smith</text>
  <rect x="135" y="388" width="75" height="28" fill="#fff" stroke="#e2e8f0" stroke-width="1"/>
  <text x="173" y="406" text-anchor="middle" font-size="9" fill="#334155">alice@co.com</text>
  <rect x="210" y="388" width="80" height="28" fill="#fff" stroke="#e2e8f0" stroke-width="1"/>
  <text x="250" y="406" text-anchor="middle" font-size="10" fill="#334155">123-45-6789</text>
  <rect x="290" y="388" width="70" height="28" fill="#fff" stroke="#e2e8f0" stroke-width="1"/>
  <text x="325" y="406" text-anchor="middle" font-size="10" fill="#334155">125000</text>
  <rect x="360" y="388" width="80" height="28" fill="#fff" stroke="#e2e8f0" stroke-width="1"/>
  <text x="400" y="406" text-anchor="middle" font-size="10" fill="#334155">Engineering</text>

  <!-- Data Row 2 -->
  <rect x="60" y="416" width="75" height="28" fill="#f8fafc" stroke="#e2e8f0" stroke-width="1"/>
  <text x="98" y="434" text-anchor="middle" font-size="10" fill="#334155">Bob Jones</text>
  <rect x="135" y="416" width="75" height="28" fill="#f8fafc" stroke="#e2e8f0" stroke-width="1"/>
  <text x="173" y="434" text-anchor="middle" font-size="9" fill="#334155">bob@co.com</text>
  <rect x="210" y="416" width="80" height="28" fill="#f8fafc" stroke="#e2e8f0" stroke-width="1"/>
  <text x="250" y="434" text-anchor="middle" font-size="10" fill="#334155">987-65-4321</text>
  <rect x="290" y="416" width="70" height="28" fill="#f8fafc" stroke="#e2e8f0" stroke-width="1"/>
  <text x="325" y="434" text-anchor="middle" font-size="10" fill="#334155">98000</text>
  <rect x="360" y="416" width="80" height="28" fill="#f8fafc" stroke="#e2e8f0" stroke-width="1"/>
  <text x="400" y="434" text-anchor="middle" font-size="10" fill="#334155">Marketing</text>

  <!-- Data Row 3 -->
  <rect x="60" y="444" width="75" height="28" fill="#fff" stroke="#e2e8f0" stroke-width="1" rx="0 0 4 0"/>
  <text x="98" y="462" text-anchor="middle" font-size="10" fill="#334155">Carol Lee</text>
  <rect x="135" y="444" width="75" height="28" fill="#fff" stroke="#e2e8f0" stroke-width="1"/>
  <text x="173" y="462" text-anchor="middle" font-size="9" fill="#334155">carol@co.com</text>
  <rect x="210" y="444" width="80" height="28" fill="#fff" stroke="#e2e8f0" stroke-width="1"/>
  <text x="250" y="462" text-anchor="middle" font-size="10" fill="#334155">456-78-9012</text>
  <rect x="290" y="444" width="70" height="28" fill="#fff" stroke="#e2e8f0" stroke-width="1"/>
  <text x="325" y="462" text-anchor="middle" font-size="10" fill="#334155">142000</text>
  <rect x="360" y="444" width="80" height="28" fill="#fff" stroke="#e2e8f0" stroke-width="1" rx="0 0 4 0"/>
  <text x="400" y="462" text-anchor="middle" font-size="10" fill="#334155">Engineering</text>

  <!-- ===== RANGER MASKING ENGINE ===== -->
  <rect x="470" y="365" width="90" height="110" rx="12" fill="#7c3aed" filter="url(#m7s)"/>
  <text x="515" y="400" text-anchor="middle" font-size="11" font-weight="800" fill="#fff">Ranger</text>
  <text x="515" y="416" text-anchor="middle" font-size="10" font-weight="600" fill="#e9d5ff">Hive</text>
  <text x="515" y="432" text-anchor="middle" font-size="10" font-weight="600" fill="#e9d5ff">Plugin</text>
  <text x="515" y="455" text-anchor="middle" font-size="8" fill="#c4b5fd">checks tags</text>
  <text x="515" y="467" text-anchor="middle" font-size="8" fill="#c4b5fd">applies mask</text>

  <!-- Arrow: table -> ranger -->
  <line x1="440" y1="420" x2="468" y2="420" stroke="#475569" stroke-width="2.5" marker-end="url(#m7a)"/>

  <!-- ===== ANALYST RESULT (masked) ===== -->
  <rect x="590" y="317" width="560" height="177" rx="12" fill="#fef2f2" stroke="#fca5a5" stroke-width="2"/>
  <!-- Header icon -->
  <circle cx="620" cy="340" r="14" fill="#dc2626"/>
  <text x="620" y="346" text-anchor="middle" font-size="14" font-weight="800" fill="#fff">A</text>
  <text x="870" y="340" text-anchor="middle" font-size="14" font-weight="800" fill="#991b1b">Analyst User  -  Masked View</text>
  <text x="870" y="356" text-anchor="middle" font-size="10" fill="#dc2626">beeline -n analyst_user -e "SELECT * FROM employees"</text>

  <!-- Masked header -->
  <rect x="610" y="367" width="80" height="24" fill="#991b1b" rx="4 4 0 0"/>
  <text x="650" y="384" text-anchor="middle" font-size="9" font-weight="700" fill="#fff">name</text>
  <rect x="690" y="367" width="100" height="24" fill="#991b1b"/>
  <text x="740" y="384" text-anchor="middle" font-size="9" font-weight="700" fill="#fff">email</text>
  <rect x="790" y="367" width="90" height="24" fill="#991b1b"/>
  <text x="835" y="384" text-anchor="middle" font-size="9" font-weight="700" fill="#fff">ssn</text>
  <rect x="880" y="367" width="70" height="24" fill="#991b1b"/>
  <text x="915" y="384" text-anchor="middle" font-size="9" font-weight="700" fill="#fff">salary</text>
  <rect x="950" y="367" width="80" height="24" fill="#1e40af" rx="0 4 0 0"/>
  <text x="990" y="384" text-anchor="middle" font-size="9" font-weight="700" fill="#fff">dept</text>

  <!-- Mask type labels -->
  <text x="650" y="402" text-anchor="middle" font-size="7" font-weight="700" fill="#dc2626">REDACT</text>
  <text x="740" y="402" text-anchor="middle" font-size="7" font-weight="700" fill="#dc2626">HASH</text>
  <text x="835" y="402" text-anchor="middle" font-size="7" font-weight="700" fill="#dc2626">PARTIAL (last 4)</text>
  <text x="915" y="402" text-anchor="middle" font-size="7" font-weight="700" fill="#ea580c">NULLIFY</text>
  <text x="990" y="402" text-anchor="middle" font-size="7" fill="#64748b">unchanged</text>

  <!-- Masked Row 1 -->
  <rect x="610" y="407" width="80" height="24" fill="#fef2f2" stroke="#fecaca" stroke-width="1"/>
  <text x="650" y="423" text-anchor="middle" font-size="9" fill="#dc2626" font-weight="600">xxxxx xxxxx</text>
  <rect x="690" y="407" width="100" height="24" fill="#fef2f2" stroke="#fecaca" stroke-width="1"/>
  <text x="740" y="423" text-anchor="middle" font-size="8" fill="#dc2626" font-weight="600">a8f3c2d7e...</text>
  <rect x="790" y="407" width="90" height="24" fill="#fef2f2" stroke="#fecaca" stroke-width="1"/>
  <text x="835" y="423" text-anchor="middle" font-size="9" fill="#dc2626" font-weight="600">XXXXXXX6789</text>
  <rect x="880" y="407" width="70" height="24" fill="#fff7ed" stroke="#fdba74" stroke-width="1"/>
  <text x="915" y="423" text-anchor="middle" font-size="9" fill="#ea580c" font-weight="700">NULL</text>
  <rect x="950" y="407" width="80" height="24" fill="#fff" stroke="#e2e8f0" stroke-width="1"/>
  <text x="990" y="423" text-anchor="middle" font-size="9" fill="#334155">Engineering</text>

  <!-- Masked Row 2 -->
  <rect x="610" y="431" width="80" height="24" fill="#fef2f2" stroke="#fecaca" stroke-width="1"/>
  <text x="650" y="447" text-anchor="middle" font-size="9" fill="#dc2626" font-weight="600">xxx xxxxx</text>
  <rect x="690" y="431" width="100" height="24" fill="#fef2f2" stroke="#fecaca" stroke-width="1"/>
  <text x="740" y="447" text-anchor="middle" font-size="8" fill="#dc2626" font-weight="600">7b3d97ca...</text>
  <rect x="790" y="431" width="90" height="24" fill="#fef2f2" stroke="#fecaca" stroke-width="1"/>
  <text x="835" y="447" text-anchor="middle" font-size="9" fill="#dc2626" font-weight="600">XXXXXXX4321</text>
  <rect x="880" y="431" width="70" height="24" fill="#fff7ed" stroke="#fdba74" stroke-width="1"/>
  <text x="915" y="447" text-anchor="middle" font-size="9" fill="#ea580c" font-weight="700">NULL</text>
  <rect x="950" y="431" width="80" height="24" fill="#f8fafc" stroke="#e2e8f0" stroke-width="1"/>
  <text x="990" y="447" text-anchor="middle" font-size="9" fill="#334155">Marketing</text>

  <!-- Masked Row 3 -->
  <rect x="610" y="455" width="80" height="24" fill="#fef2f2" stroke="#fecaca" stroke-width="1"/>
  <text x="650" y="471" text-anchor="middle" font-size="9" fill="#dc2626" font-weight="600">xxxxx xxx</text>
  <rect x="690" y="455" width="100" height="24" fill="#fef2f2" stroke="#fecaca" stroke-width="1"/>
  <text x="740" y="471" text-anchor="middle" font-size="8" fill="#dc2626" font-weight="600">e2c26b4f...</text>
  <rect x="790" y="455" width="90" height="24" fill="#fef2f2" stroke="#fecaca" stroke-width="1"/>
  <text x="835" y="471" text-anchor="middle" font-size="9" fill="#dc2626" font-weight="600">XXXXXXX9012</text>
  <rect x="880" y="455" width="70" height="24" fill="#fff7ed" stroke="#fdba74" stroke-width="1"/>
  <text x="915" y="471" text-anchor="middle" font-size="9" fill="#ea580c" font-weight="700">NULL</text>
  <rect x="950" y="455" width="80" height="24" fill="#fff" stroke="#e2e8f0" stroke-width="1"/>
  <text x="990" y="471" text-anchor="middle" font-size="9" fill="#334155">Engineering</text>

  <!-- Arrow: ranger -> masked -->
  <line x1="560" y1="400" x2="608" y2="400" stroke="#dc2626" stroke-width="2.5" marker-end="url(#m7a)"/>

  <!-- ===== ADMIN RESULT (unmasked) ===== -->
  <rect x="590" y="503" width="560" height="140" rx="12" fill="#f0fdf4" stroke="#86efac" stroke-width="2"/>
  <circle cx="620" cy="525" r="14" fill="#16a34a"/>
  <text x="620" y="531" text-anchor="middle" font-size="14" font-weight="800" fill="#fff">A</text>
  <text x="870" y="525" text-anchor="middle" font-size="14" font-weight="800" fill="#166534">Admin User  -  Unmasked View</text>
  <text x="870" y="541" text-anchor="middle" font-size="10" fill="#16a34a">beeline -n data_admin -e "SELECT * FROM employees"</text>

  <!-- Unmasked header -->
  <rect x="610" y="552" width="80" height="24" fill="#166534" rx="4 4 0 0"/>
  <text x="650" y="569" text-anchor="middle" font-size="9" font-weight="700" fill="#fff">name</text>
  <rect x="690" y="552" width="100" height="24" fill="#166534"/>
  <text x="740" y="569" text-anchor="middle" font-size="9" font-weight="700" fill="#fff">email</text>
  <rect x="790" y="552" width="90" height="24" fill="#166534"/>
  <text x="835" y="569" text-anchor="middle" font-size="9" font-weight="700" fill="#fff">ssn</text>
  <rect x="880" y="552" width="70" height="24" fill="#166534"/>
  <text x="915" y="569" text-anchor="middle" font-size="9" font-weight="700" fill="#fff">salary</text>
  <rect x="950" y="552" width="80" height="24" fill="#166534" rx="0 4 0 0"/>
  <text x="990" y="569" text-anchor="middle" font-size="9" font-weight="700" fill="#fff">dept</text>

  <!-- Unmasked Row 1 -->
  <rect x="610" y="576" width="80" height="22" fill="#f0fdf4" stroke="#86efac" stroke-width="1"/>
  <text x="650" y="591" text-anchor="middle" font-size="9" fill="#166534">Alice Smith</text>
  <rect x="690" y="576" width="100" height="22" fill="#f0fdf4" stroke="#86efac" stroke-width="1"/>
  <text x="740" y="591" text-anchor="middle" font-size="9" fill="#166534">alice@co.com</text>
  <rect x="790" y="576" width="90" height="22" fill="#f0fdf4" stroke="#86efac" stroke-width="1"/>
  <text x="835" y="591" text-anchor="middle" font-size="9" fill="#166534">123-45-6789</text>
  <rect x="880" y="576" width="70" height="22" fill="#f0fdf4" stroke="#86efac" stroke-width="1"/>
  <text x="915" y="591" text-anchor="middle" font-size="9" fill="#166534">125000</text>
  <rect x="950" y="576" width="80" height="22" fill="#f0fdf4" stroke="#86efac" stroke-width="1"/>
  <text x="990" y="591" text-anchor="middle" font-size="9" fill="#166534">Engineering</text>

  <!-- Unmasked Row 2 -->
  <rect x="610" y="598" width="80" height="22" fill="#f0fdf4" stroke="#86efac" stroke-width="1"/>
  <text x="650" y="613" text-anchor="middle" font-size="9" fill="#166534">Bob Jones</text>
  <rect x="690" y="598" width="100" height="22" fill="#f0fdf4" stroke="#86efac" stroke-width="1"/>
  <text x="740" y="613" text-anchor="middle" font-size="9" fill="#166534">bob@co.com</text>
  <rect x="790" y="598" width="90" height="22" fill="#f0fdf4" stroke="#86efac" stroke-width="1"/>
  <text x="835" y="613" text-anchor="middle" font-size="9" fill="#166534">987-65-4321</text>
  <rect x="880" y="598" width="70" height="22" fill="#f0fdf4" stroke="#86efac" stroke-width="1"/>
  <text x="915" y="613" text-anchor="middle" font-size="9" fill="#166534">98000</text>
  <rect x="950" y="598" width="80" height="22" fill="#f0fdf4" stroke="#86efac" stroke-width="1"/>
  <text x="990" y="613" text-anchor="middle" font-size="9" fill="#166534">Marketing</text>

  <!-- Unmasked Row 3 -->
  <rect x="610" y="620" width="80" height="22" fill="#f0fdf4" stroke="#86efac" stroke-width="1"/>
  <text x="650" y="635" text-anchor="middle" font-size="9" fill="#166534">Carol Lee</text>
  <rect x="690" y="620" width="100" height="22" fill="#f0fdf4" stroke="#86efac" stroke-width="1"/>
  <text x="740" y="635" text-anchor="middle" font-size="9" fill="#166534">carol@co.com</text>
  <rect x="790" y="620" width="90" height="22" fill="#f0fdf4" stroke="#86efac" stroke-width="1"/>
  <text x="835" y="635" text-anchor="middle" font-size="9" fill="#166534">456-78-9012</text>
  <rect x="880" y="620" width="70" height="22" fill="#f0fdf4" stroke="#86efac" stroke-width="1"/>
  <text x="915" y="635" text-anchor="middle" font-size="9" fill="#166534">142000</text>
  <rect x="950" y="620" width="80" height="22" fill="#f0fdf4" stroke="#86efac" stroke-width="1"/>
  <text x="990" y="635" text-anchor="middle" font-size="9" fill="#166534">Engineering</text>

  <!-- Arrow: ranger -> unmasked -->
  <line x1="560" y1="445" x2="575" y2="445" stroke="#475569" stroke-width="1"/>
  <line x1="575" y1="445" x2="575" y2="585" stroke="#16a34a" stroke-width="2" stroke-dasharray="5,3"/>
  <line x1="575" y1="585" x2="608" y2="585" stroke="#16a34a" stroke-width="2.5" marker-end="url(#m7a)"/>

  <!-- Key insight box -->
  <rect x="60" y="490" width="380" height="50" rx="8" fill="#fff" stroke="#7c3aed" stroke-width="1.5"/>
  <text x="250" y="510" text-anchor="middle" font-size="11" font-weight="700" fill="#7c3aed">Same query, same table, same data</text>
  <text x="250" y="528" text-anchor="middle" font-size="10" fill="#64748b">Different result based on WHO is asking</text>

  <!-- ============ MASKING TYPES REFERENCE ============ -->
  <rect x="40" y="678" width="1120" height="225" rx="14" fill="#fff" stroke="#e2e8f0" stroke-width="1.5" filter="url(#m7s)"/>
  <rect x="40" y="678" width="1120" height="32" rx="14" fill="#475569"/>
  <rect x="40" y="698" width="1120" height="12" fill="#475569"/>
  <text x="600" y="699" text-anchor="middle" font-size="14" font-weight="800" fill="#fff">All Masking Types Available in Ranger</text>

  <!-- Card 1: Redact -->
  <rect x="60" y="722" width="155" height="120" rx="10" fill="#fff" stroke="#dc2626" stroke-width="2"/>
  <rect x="60" y="722" width="155" height="28" rx="10" fill="#dc2626"/>
  <rect x="60" y="740" width="155" height="10" fill="#dc2626"/>
  <text x="138" y="741" text-anchor="middle" font-size="12" font-weight="700" fill="#fff">Redact</text>
  <text x="138" y="770" text-anchor="middle" font-size="10" fill="#64748b">Replace all chars with x</text>
  <rect x="75" y="780" width="125" height="20" rx="4" fill="#f8fafc" stroke="#e2e8f0" stroke-width="1"/>
  <text x="138" y="795" text-anchor="middle" font-size="9" font-family="monospace" fill="#334155">John -> xxxx</text>
  <rect x="75" y="806" width="125" height="20" rx="4" fill="#fef2f2" stroke="#fecaca" stroke-width="1"/>
  <text x="138" y="821" text-anchor="middle" font-size="9" font-family="monospace" fill="#dc2626">Smith -> xxxxx</text>
  <text x="138" y="838" text-anchor="middle" font-size="9" fill="#94a3b8">Best for: names, text</text>

  <!-- Card 2: Partial Mask -->
  <rect x="230" y="722" width="155" height="120" rx="10" fill="#fff" stroke="#ea580c" stroke-width="2"/>
  <rect x="230" y="722" width="155" height="28" rx="10" fill="#ea580c"/>
  <rect x="230" y="740" width="155" height="10" fill="#ea580c"/>
  <text x="308" y="741" text-anchor="middle" font-size="12" font-weight="700" fill="#fff">Partial Mask</text>
  <text x="308" y="770" text-anchor="middle" font-size="10" fill="#64748b">Show first/last N chars</text>
  <rect x="245" y="780" width="125" height="20" rx="4" fill="#f8fafc" stroke="#e2e8f0" stroke-width="1"/>
  <text x="308" y="795" text-anchor="middle" font-size="8" font-family="monospace" fill="#334155">123-45-6789</text>
  <rect x="245" y="806" width="125" height="20" rx="4" fill="#fff7ed" stroke="#fdba74" stroke-width="1"/>
  <text x="308" y="821" text-anchor="middle" font-size="8" font-family="monospace" fill="#ea580c">XXXXXXX6789</text>
  <text x="308" y="838" text-anchor="middle" font-size="9" fill="#94a3b8">Best for: SSN, CC#</text>

  <!-- Card 3: Hash -->
  <rect x="400" y="722" width="155" height="120" rx="10" fill="#fff" stroke="#7c3aed" stroke-width="2"/>
  <rect x="400" y="722" width="155" height="28" rx="10" fill="#7c3aed"/>
  <rect x="400" y="740" width="155" height="10" fill="#7c3aed"/>
  <text x="478" y="741" text-anchor="middle" font-size="12" font-weight="700" fill="#fff">Hash (SHA-256)</text>
  <text x="478" y="770" text-anchor="middle" font-size="10" fill="#64748b">One-way hash of value</text>
  <rect x="415" y="780" width="125" height="20" rx="4" fill="#f8fafc" stroke="#e2e8f0" stroke-width="1"/>
  <text x="478" y="795" text-anchor="middle" font-size="8" font-family="monospace" fill="#334155">alice@co.com</text>
  <rect x="415" y="806" width="125" height="20" rx="4" fill="#faf5ff" stroke="#d8b4fe" stroke-width="1"/>
  <text x="478" y="821" text-anchor="middle" font-size="8" font-family="monospace" fill="#7c3aed">a8f3c2d7e5...</text>
  <text x="478" y="838" text-anchor="middle" font-size="9" fill="#94a3b8">Best for: email, IDs</text>

  <!-- Card 4: Nullify -->
  <rect x="570" y="722" width="155" height="120" rx="10" fill="#fff" stroke="#d97706" stroke-width="2"/>
  <rect x="570" y="722" width="155" height="28" rx="10" fill="#d97706"/>
  <rect x="570" y="740" width="155" height="10" fill="#d97706"/>
  <text x="648" y="741" text-anchor="middle" font-size="12" font-weight="700" fill="#fff">Nullify</text>
  <text x="648" y="770" text-anchor="middle" font-size="10" fill="#64748b">Replace with NULL</text>
  <rect x="585" y="780" width="125" height="20" rx="4" fill="#f8fafc" stroke="#e2e8f0" stroke-width="1"/>
  <text x="648" y="795" text-anchor="middle" font-size="9" font-family="monospace" fill="#334155">125000.00</text>
  <rect x="585" y="806" width="125" height="20" rx="4" fill="#fef3c7" stroke="#fde68a" stroke-width="1"/>
  <text x="648" y="821" text-anchor="middle" font-size="9" font-family="monospace" fill="#d97706">NULL</text>
  <text x="648" y="838" text-anchor="middle" font-size="9" fill="#94a3b8">Best for: salary, amounts</text>

  <!-- Card 5: Date Year -->
  <rect x="740" y="722" width="155" height="120" rx="10" fill="#fff" stroke="#2563eb" stroke-width="2"/>
  <rect x="740" y="722" width="155" height="28" rx="10" fill="#2563eb"/>
  <rect x="740" y="740" width="155" height="10" fill="#2563eb"/>
  <text x="818" y="741" text-anchor="middle" font-size="12" font-weight="700" fill="#fff">Date: Year Only</text>
  <text x="818" y="770" text-anchor="middle" font-size="10" fill="#64748b">Zero out month &amp; day</text>
  <rect x="755" y="780" width="125" height="20" rx="4" fill="#f8fafc" stroke="#e2e8f0" stroke-width="1"/>
  <text x="818" y="795" text-anchor="middle" font-size="9" font-family="monospace" fill="#334155">1990-06-15</text>
  <rect x="755" y="806" width="125" height="20" rx="4" fill="#eff6ff" stroke="#bfdbfe" stroke-width="1"/>
  <text x="818" y="821" text-anchor="middle" font-size="9" font-family="monospace" fill="#2563eb">1990-01-01</text>
  <text x="818" y="838" text-anchor="middle" font-size="9" fill="#94a3b8">Best for: DOB, dates</text>

  <!-- Card 6: Custom -->
  <rect x="910" y="722" width="155" height="120" rx="10" fill="#fff" stroke="#16a34a" stroke-width="2"/>
  <rect x="910" y="722" width="155" height="28" rx="10" fill="#16a34a"/>
  <rect x="910" y="740" width="155" height="10" fill="#16a34a"/>
  <text x="988" y="741" text-anchor="middle" font-size="12" font-weight="700" fill="#fff">Custom (UDF)</text>
  <text x="988" y="770" text-anchor="middle" font-size="10" fill="#64748b">Any SQL expression</text>
  <rect x="925" y="780" width="125" height="20" rx="4" fill="#f8fafc" stroke="#e2e8f0" stroke-width="1"/>
  <text x="988" y="795" text-anchor="middle" font-size="8" font-family="monospace" fill="#334155">555-123-4567</text>
  <rect x="925" y="806" width="125" height="20" rx="4" fill="#f0fdf4" stroke="#86efac" stroke-width="1"/>
  <text x="988" y="821" text-anchor="middle" font-size="8" font-family="monospace" fill="#16a34a">XXX-XXX-4567</text>
  <text x="988" y="838" text-anchor="middle" font-size="9" fill="#94a3b8">Best for: phone, custom</text>

  <!-- Footer note -->
  <rect x="60" y="855" width="1080" height="36" rx="8" fill="#f8fafc" stroke="#cbd5e1" stroke-width="1"/>
  <text x="600" y="873" text-anchor="middle" font-size="11" fill="#334155">Masking is applied at query time by Ranger Hive Plugin. The actual table data remains unchanged.</text>
  <text x="600" y="887" text-anchor="middle" font-size="10" fill="#64748b">Use "Unmasked" masking type in a higher-priority policy to grant privileged users access to original values.</text>
</svg>